<?xml version="1.0" encoding="iso-8859-1"?>
<!-- Uploaded to: SVG Repo, www.svgrepo.com, Generator: SVG Repo Mixer Tools -->
<!DOCTYPE svg PUBLIC "-//W3C//DTD SVG 1.1//EN" "http://www.w3.org/Graphics/SVG/1.1/DTD/svg11.dtd">
<svg fill="#FFF" version="1.1" id="Capa_1" xmlns="http://www.w3.org/2000/svg" xmlns:xlink="http://www.w3.org/1999/xlink" 
	 width="800px" height="800px" viewBox="0 0 498.567 498.567"
	 xml:space="preserve">
<g>
	<path d="M437.78,106.872c-1.523-2-3.896-3.17-6.404-3.17h-83.319c-4.456,0-8.062,3.612-8.062,8.063v44.122h-40.315v-44.122
		c0-4.451-3.606-8.063-8.063-8.063h-87.351c-4.457,0-8.062,3.612-8.062,8.063v44.122h-43.003v-44.063
		c0-4.45-3.606-8.063-8.063-8.063H65.849c-2.667,0-5.155,1.318-6.662,3.518L1.401,191.884C0.488,193.223,0,194.811,0,196.433v55.539
		c0,4.452,3.606,8.063,8.063,8.063h83.318c4.349,0,7.917-3.455,8.058-7.801l1.089-33.187h60.733v32.924
		c0,4.452,3.606,8.063,8.062,8.063h163.951c4.456,0,8.062-3.611,8.062-8.063v-32.924h59.388l1.092,33.187
		c0.142,4.357,3.711,7.801,8.058,7.801h80.63c4.458,0,8.063-3.611,8.063-8.063v-62.709c0-1.769-0.577-3.484-1.658-4.893
		L437.78,106.872z"/>
	<path d="M490.504,273.473h-81.975c-4.456,0-8.062,3.612-8.062,8.063v18.814h-67.192v-18.814c0-4.451-3.607-8.063-8.063-8.063
		H166.637c-4.457,0-8.062,3.612-8.062,8.063v18.814H98.101v-18.814c0-4.451-3.607-8.063-8.063-8.063H8.063
		c-4.457,0-8.063,3.612-8.063,8.063v153.199c0,4.451,3.606,8.062,8.063,8.062h482.441c4.458,0,8.063-3.61,8.063-8.062V281.536
		C498.567,277.085,494.957,273.473,490.504,273.473z"/>
	<path d="M146.479,289.6c4.457,0,8.063-3.612,8.063-8.063v-45.373c0-4.452-3.607-8.063-8.063-8.063h-36.284
		c-4.457,0-8.062,3.611-8.062,8.063v45.373c0,4.451,3.606,8.063,8.062,8.063H146.479z"/>
	<path d="M390.388,289.6c4.458,0,8.062-3.612,8.062-8.063v-45.373c0-4.452-3.604-8.063-8.062-8.063h-36.284
		c-4.457,0-8.062,3.611-8.062,8.063v45.373c0,4.451,3.604,8.063,8.062,8.063H390.388z"/>
	<path d="M323.867,149.388c4.456,0,8.063-3.611,8.063-8.063v-41.208c0-0.199-0.006-0.398-0.021-0.59
		c-0.137-1.79-4.146-43.756-82.625-43.756c-78.481,0-82.492,41.966-82.625,43.756c-0.01,0.191-0.021,0.391-0.021,0.59v41.208
		c0,4.452,3.607,8.063,8.063,8.063c4.458,0,8.063-3.611,8.063-8.063v-40.761c0.375-2.263,6.247-28.667,66.521-28.667
		c60.641,0,66.138,26.19,66.52,28.657v40.771C315.804,145.776,319.41,149.388,323.867,149.388z"/>
</g>
</svg>